<?xml version="1.0" encoding="utf-8"?>
<!-- Svg Vector Icons : http://www.onlinewebfonts.com/icon -->
<!DOCTYPE svg PUBLIC "-//W3C//DTD SVG 1.1//EN" "http://www.w3.org/Graphics/SVG/1.1/DTD/svg11.dtd">
<svg version="1.1" xmlns="http://www.w3.org/2000/svg" xmlns:xlink="http://www.w3.org/1999/xlink" x="0px" y="0px" viewBox="0 0 1000 1000" enable-background="new 0 0 1000 1000" xml:space="preserve">
<metadata> Svg Vector Icons : http://www.onlinewebfonts.com/icon </metadata>
<g><path d="M438.9,224.4H255.5v61.2h183.3L438.9,224.4L438.9,224.4z M255.5,775.6h488.9v-61.2H255.5V775.6z M438.9,346.9H255.5v61.2h183.3L438.9,346.9L438.9,346.9z M652.8,10H163.9c-50.6,0-91.7,41.1-91.7,91.9v796.3c0,50.7,41,91.9,91.7,91.9h672.3c50.6,0,91.7-41.2,91.7-91.9V285.6L652.8,10z M652.8,101.9l183.3,183.7H713.9c-33.8,0-61.1-27.4-61.1-61.2V101.9z M866.7,867.5c0,33.8-27.4,61.2-61.1,61.2H194.4c-33.8,0-61.1-27.4-61.1-61.2v-735c0-33.8,27.4-61.3,61.1-61.3h397.2V255c0,50.7,41,91.9,91.7,91.9h183.3V867.5L866.7,867.5z M255.5,653.1h488.9v-61.2H255.5V653.1z M255.5,530.6h488.9l0-61.3H255.5V530.6z"/></g>
</svg>